<svg width="14" height="17" viewBox="0 0 14 17" fill="none" xmlns="http://www.w3.org/2000/svg">
<path d="M6.8 0V5.525C6.8 6.18774 7.30568 6.73238 7.95221 6.79416L8.075 6.8H13.6V15.3C13.6 16.1962 12.9065 16.9304 12.0269 16.9953L11.9 17H1.7C0.803792 17 0.0695594 16.3065 0.0046627 15.4269L0 15.3L0 1.7C0 0.803792 0.693496 0.0695596 1.57313 0.00466291L1.7 0L6.8 0ZM8.5 0.036856C8.77387 0.094843 9.03044 0.219882 9.24584 0.402096L9.35 0.497921L13.1021 4.25C13.3031 4.451 13.4486 4.69715 13.5286 4.96461L13.5631 5.1H8.5V0.036856Z" fill="#295893"/>
</svg>
