<svg width="16" height="14" viewBox="0 0 16 14" fill="none" xmlns="http://www.w3.org/2000/svg">
<path d="M14.4 0C15.2837 0 16 0.696446 16 1.55556V12.4444C16 13.3036 15.2837 14 14.4 14H1.6C0.716344 14 0 13.3036 0 12.4444L0 1.55556C0 0.696446 0.716344 0 1.6 0L14.4 0ZM14.4 1.55556L1.6 1.55556L1.6 9.4115L5.59584 5.52666C5.98637 5.147 6.61952 5.147 7.01008 5.52666L10.2627 8.68902L11.2527 7.7266C11.6432 7.34689 12.2764 7.34689 12.6669 7.7266L14.4 9.4115V1.55556ZM10.8 3.11111C11.4627 3.11111 12 3.63344 12 4.27778C12 4.92211 11.4627 5.44444 10.8 5.44444C10.1373 5.44444 9.6 4.92211 9.6 4.27778C9.6 3.63344 10.1373 3.11111 10.8 3.11111Z" fill="#AC3140"/>
</svg>
